<svg width="101" height="97" viewBox="0 0 101 97" fill="none" xmlns="http://www.w3.org/2000/svg">
<path d="M69.8343 94.6158C77.9794 98.8698 95.4505 94.097 98.9191 75.9695C102.485 57.3308 92.3434 56.8388 94.1137 50.0583C101.219 39.9565 102.485 27.0647 95.1254 19.3039C76.9158 1.14186 72.3634 22.9363 57.1887 9.61748C51.0539 3.74345 41.7611 -3.21703 28.3568 1.62618C9.40542 8.47366 13.9409 22.7643 13.9409 33.107C13.9409 36.7487 1.86053 43.5946 0.536587 52.9642C-1.13276 64.7782 6.60646 80.3284 13.9409 85.6559C25.5748 98.2482 43.5315 95.3423 51.6247 90.9834C58.574 87.2406 64.2702 91.7099 69.8343 94.6158Z" fill="#F5E3BB"/>
</svg>
