<svg width="18" height="16" viewBox="0 0 18 16" fill="none" xmlns="http://www.w3.org/2000/svg">
<path d="M7.58334 4.41667C7.50614 4.49294 7.44485 4.58377 7.40301 4.6839C7.36118 4.78404 7.33964 4.89148 7.33964 5C7.33964 5.10852 7.36118 5.21596 7.40301 5.3161C7.44485 5.41623 7.50614 5.50706 7.58334 5.58333L9.16667 7.16667H1.50001C1.04167 7.16667 0.666672 7.54167 0.666672 8C0.666672 8.45833 1.04167 8.83333 1.50001 8.83333H9.16667L7.58334 10.4167C7.50614 10.4929 7.44485 10.5838 7.40301 10.6839C7.36118 10.784 7.33964 10.8915 7.33964 11C7.33964 11.1085 7.36118 11.216 7.40301 11.3161C7.44485 11.4162 7.50614 11.5071 7.58334 11.5833C7.90834 11.9083 8.42501 11.9083 8.75001 11.5833L11.7417 8.59167C11.8189 8.51457 11.8802 8.423 11.922 8.32219C11.9639 8.22138 11.9854 8.11331 11.9854 8.00417C11.9854 7.89503 11.9639 7.78696 11.922 7.68615C11.8802 7.58534 11.8189 7.49376 11.7417 7.41667L8.75001 4.41667C8.67374 4.33947 8.5829 4.27817 8.48277 4.23634C8.38263 4.19451 8.27519 4.17297 8.16667 4.17297C8.05815 4.17297 7.95071 4.19451 7.85058 4.23634C7.75044 4.27817 7.65961 4.33947 7.58334 4.41667ZM15.6667 13.8333H9.83334C9.37501 13.8333 9.00001 14.2083 9.00001 14.6667C9.00001 15.125 9.37501 15.5 9.83334 15.5H15.6667C16.5833 15.5 17.3333 14.75 17.3333 13.8333V2.16667C17.3333 1.25 16.5833 0.5 15.6667 0.5H9.83334C9.37501 0.5 9.00001 0.875 9.00001 1.33333C9.00001 1.79167 9.37501 2.16667 9.83334 2.16667H15.6667V13.8333Z" fill="#008D96"/>
</svg>
