<svg width="25" height="26" viewBox="0 0 25 26" fill="none" xmlns="http://www.w3.org/2000/svg">
<g clip-path="url(#clip0_123_1257)">
<path d="M23.6202 26.0001C24.3821 26.0001 25 25.3576 25 24.5651V1.43498C25 0.642383 24.3821 0 23.6202 0H1.37979C0.617578 0 0 0.642383 0 1.43498V24.5651C0 25.3576 0.617578 26.0001 1.37979 26.0001H23.6202Z" fill="#395185"/>
<path d="M17.2494 26.0001V15.9315H20.4991L20.9856 12.0076H17.2494V9.50229C17.2494 8.36621 17.5528 7.592 19.1193 7.592L21.1173 7.59108V4.08159C20.7716 4.03376 19.5856 3.92691 18.206 3.92691C15.3253 3.92691 13.3532 5.75555 13.3532 9.11381V12.0076H10.0952V15.9315H13.3532V26.0001H17.2494Z" fill="white"/>
</g>
<defs>
<clipPath id="clip0_123_1257">
<rect width="25" height="26" fill="white"/>
</clipPath>
</defs>
</svg>
