<svg width="24" height="18" viewBox="0 0 24 18" fill="none" xmlns="http://www.w3.org/2000/svg">
<path d="M2.00001 0.666656H10.3333C10.7754 0.666656 11.1993 0.842252 11.5119 1.15481C11.8244 1.46737 12 1.8913 12 2.33332C12 2.77535 11.8244 3.19927 11.5119 3.51183C11.1993 3.82439 10.7754 3.99999 10.3333 3.99999H2.00001C1.55798 3.99999 1.13406 3.82439 0.821499 3.51183C0.508939 3.19927 0.333344 2.77535 0.333344 2.33332C0.333344 1.8913 0.508939 1.46737 0.821499 1.15481C1.13406 0.842252 1.55798 0.666656 2.00001 0.666656ZM13.6667 14H22C22.442 14 22.866 14.1756 23.1785 14.4881C23.4911 14.8007 23.6667 15.2246 23.6667 15.6667C23.6667 16.1087 23.4911 16.5326 23.1785 16.8452C22.866 17.1577 22.442 17.3333 22 17.3333H13.6667C13.2247 17.3333 12.8007 17.1577 12.4882 16.8452C12.1756 16.5326 12 16.1087 12 15.6667C12 15.2246 12.1756 14.8007 12.4882 14.4881C12.8007 14.1756 13.2247 14 13.6667 14ZM2.00001 7.33332H22C22.442 7.33332 22.866 7.50892 23.1785 7.82148C23.4911 8.13404 23.6667 8.55796 23.6667 8.99999C23.6667 9.44202 23.4911 9.86594 23.1785 10.1785C22.866 10.4911 22.442 10.6667 22 10.6667H2.00001C1.55798 10.6667 1.13406 10.4911 0.821499 10.1785C0.508939 9.86594 0.333344 9.44202 0.333344 8.99999C0.333344 8.55796 0.508939 8.13404 0.821499 7.82148C1.13406 7.50892 1.55798 7.33332 2.00001 7.33332Z" fill="#1B2221"/>
</svg>
