<svg width="18" height="18" viewBox="0 0 18 18" fill="none" xmlns="http://www.w3.org/2000/svg">
<path d="M9.87501 7.15831L7.33334 5.24998V12.75L9.87501 10.8416L12.3333 8.99998L9.87501 7.15831ZM9.87501 7.15831L7.33334 5.24998V12.75L9.87501 10.8416L12.3333 8.99998L9.87501 7.15831ZM9.87501 7.15831L7.33334 5.24998V12.75L9.87501 10.8416L12.3333 8.99998L9.87501 7.15831ZM8.16668 2.39165V0.708313C6.49168 0.87498 4.96668 1.54165 3.73334 2.54998L4.91668 3.74165C5.8583 3.00655 6.98135 2.54006 8.16668 2.39165ZM3.74168 4.91665L2.55001 3.73331C1.51235 4.99713 0.871598 6.53959 0.708344 8.16665H2.39168C2.54168 6.94998 3.02501 5.84165 3.74168 4.91665ZM2.39168 9.83331H0.708344C0.87501 11.5083 1.54168 13.0333 2.55001 14.2666L3.74168 13.075C3.00531 12.1373 2.53857 11.0165 2.39168 9.83331ZM3.73334 15.45C4.99799 16.4863 6.54001 17.1268 8.16668 17.2916V15.6083C6.98135 15.4599 5.8583 14.9934 4.91668 14.2583L3.73334 15.45ZM17.3333 8.99998C17.3333 13.3 14.0667 16.85 9.87501 17.2916V15.6083C13.1417 15.175 15.6667 12.375 15.6667 8.99998C15.6667 5.62498 13.1417 2.82498 9.87501 2.39165V0.708313C14.0667 1.14998 17.3333 4.69998 17.3333 8.99998Z" fill="#939393"/>
</svg>
