<svg width="21" height="22" viewBox="0 0 21 22" fill="none" xmlns="http://www.w3.org/2000/svg">
<path d="M4.5001 14C5.3752 13.995 6.21688 13.6634 6.8601 13.07L13.1201 16.65C13.0404 16.9263 13 17.2124 13.0001 17.5C12.9937 18.3115 13.2671 19.1005 13.7743 19.7341C14.2815 20.3676 14.9915 20.8071 15.7848 20.9784C16.5781 21.1497 17.4061 21.0425 18.1296 20.6747C18.8531 20.307 19.4277 19.7011 19.7568 18.9593C20.0859 18.2174 20.1493 17.3848 19.9363 16.6017C19.7234 15.8186 19.2471 15.1327 18.5876 14.6597C17.9282 14.1866 17.1259 13.9552 16.3158 14.0044C15.5058 14.0537 14.7374 14.3806 14.1401 14.93L7.8801 11.35C7.95565 11.1036 7.99605 10.8477 8.0001 10.59L14.1501 7.07C14.7442 7.60684 15.5047 7.92309 16.3043 7.9657C17.1039 8.00832 17.8938 7.7747 18.5415 7.30405C19.1893 6.8334 19.6555 6.15432 19.862 5.38072C20.0685 4.60712 20.0027 3.78603 19.6757 3.05518C19.3486 2.32432 18.7802 1.72814 18.0658 1.36663C17.3514 1.00511 16.5344 0.90025 15.7518 1.06963C14.9692 1.239 14.2687 1.67231 13.7677 2.29689C13.2667 2.92147 12.9957 3.69932 13.0001 4.5C13.0035 4.78731 13.0438 5.07299 13.1201 5.35L7.4301 8.6C7.10041 8.08996 6.64367 7.67448 6.10479 7.3944C5.5659 7.11433 4.9634 6.9793 4.35653 7.00259C3.74965 7.02587 3.15928 7.20667 2.64343 7.52722C2.12759 7.84776 1.70403 8.29701 1.41439 8.83082C1.12475 9.36463 0.979001 9.96461 0.991459 10.5718C1.00392 11.179 1.17416 11.7725 1.48545 12.294C1.79675 12.8155 2.23837 13.247 2.76693 13.5461C3.29549 13.8452 3.89278 14.0016 4.5001 14ZM16.5001 16C16.7968 16 17.0868 16.088 17.3335 16.2528C17.5801 16.4176 17.7724 16.6519 17.8859 16.926C17.9995 17.2001 18.0292 17.5017 17.9713 17.7926C17.9134 18.0836 17.7705 18.3509 17.5608 18.5607C17.351 18.7704 17.0837 18.9133 16.7927 18.9712C16.5018 19.0291 16.2002 18.9993 15.9261 18.8858C15.652 18.7723 15.4177 18.58 15.2529 18.3334C15.0881 18.0867 15.0001 17.7967 15.0001 17.5C15.0001 17.1022 15.1581 16.7206 15.4394 16.4393C15.7207 16.158 16.1023 16 16.5001 16ZM16.5001 3C16.7968 3 17.0868 3.08797 17.3335 3.2528C17.5801 3.41762 17.7724 3.65189 17.8859 3.92598C17.9995 4.20006 18.0292 4.50166 17.9713 4.79264C17.9134 5.08361 17.7705 5.35088 17.5608 5.56066C17.351 5.77044 17.0837 5.9133 16.7927 5.97118C16.5018 6.02906 16.2002 5.99935 15.9261 5.88582C15.652 5.77229 15.4177 5.58003 15.2529 5.33336C15.0881 5.08668 15.0001 4.79667 15.0001 4.5C15.0001 4.10218 15.1581 3.72064 15.4394 3.43934C15.7207 3.15804 16.1023 3 16.5001 3ZM4.5001 9C4.79677 9 5.08678 9.08797 5.33346 9.2528C5.58013 9.41762 5.77239 9.65189 5.88592 9.92597C5.99945 10.2001 6.02916 10.5017 5.97128 10.7926C5.9134 11.0836 5.77054 11.3509 5.56076 11.5607C5.35098 11.7704 5.08371 11.9133 4.79274 11.9712C4.50177 12.0291 4.20017 11.9994 3.92608 11.8858C3.65199 11.7723 3.41772 11.58 3.2529 11.3334C3.08808 11.0867 3.0001 10.7967 3.0001 10.5C3.0001 10.1022 3.15814 9.72064 3.43944 9.43934C3.72075 9.15804 4.10228 9 4.5001 9Z" fill="#008D96"/>
</svg>
