<svg width="23" height="26" viewBox="0 0 23 26" fill="none" xmlns="http://www.w3.org/2000/svg">
<path d="M19.9938 3.12125C19.9453 2.41004 19.6285 1.74377 19.1076 1.25717C18.5866 0.770564 17.9004 0.499934 17.1875 0.5H2.8125L2.62 0.50625C1.9088 0.555042 1.24266 0.872084 0.756285 1.39326C0.269911 1.91445 -0.000403947 2.60088 4.53093e-07 3.31375V22.6862L0.0062506 22.8787C0.0547251 23.59 0.371458 24.2562 0.892405 24.7428C1.41335 25.2294 2.09964 25.5001 2.8125 25.5H12.2725L10.3975 23.625H2.8125L2.685 23.6162C2.46056 23.5854 2.25487 23.4744 2.10596 23.3037C1.95705 23.1329 1.87501 22.914 1.875 22.6875V3.31375L1.88375 3.18625C1.91456 2.96181 2.0256 2.75611 2.19634 2.60721C2.36707 2.4583 2.58595 2.37626 2.8125 2.37625H17.1875L17.315 2.385C17.5394 2.41581 17.7451 2.52685 17.894 2.69759C18.0429 2.86832 18.125 3.0872 18.125 3.31375V17.7725L19.5738 16.3237C19.7063 16.1912 19.8488 16.0737 19.9988 15.9737V3.3125L19.9938 3.12V3.12125ZM15.36 25.4987C15.3284 25.5005 15.2966 25.5005 15.265 25.4987C15.0327 25.4871 14.8131 25.3895 14.6488 25.225L11.5238 22.0975C11.348 21.9215 11.2495 21.6828 11.2497 21.4341C11.2499 21.1854 11.349 20.947 11.525 20.7712C11.701 20.5955 11.9397 20.497 12.1884 20.4972C12.4371 20.4974 12.6755 20.5965 12.8513 20.7725L15.3125 23.2362L20.9 17.6487C20.9865 17.5592 21.09 17.4879 21.2044 17.4388C21.3188 17.3897 21.4418 17.3639 21.5663 17.3629C21.6908 17.3619 21.8142 17.3857 21.9294 17.4328C22.0446 17.48 22.1493 17.5497 22.2372 17.6378C22.3252 17.7258 22.3948 17.8305 22.4419 17.9458C22.489 18.061 22.5126 18.1845 22.5115 18.3089C22.5103 18.4334 22.4844 18.5564 22.4352 18.6708C22.3861 18.7851 22.3146 18.8886 22.225 18.975L15.975 25.225C15.811 25.3892 15.5918 25.4868 15.36 25.4987ZM12.3 18.625C12.2242 18.622 12.1483 18.622 12.0725 18.625H9.05625C8.80761 18.625 8.56915 18.5262 8.39334 18.3504C8.21752 18.1746 8.11875 17.9361 8.11875 17.6875C8.11875 17.4389 8.21752 17.2004 8.39334 17.0246C8.56915 16.8488 8.80761 16.75 9.05625 16.75H15.3113C15.5599 16.75 15.7983 16.8488 15.9742 17.0246C16.15 17.2004 16.2488 17.4389 16.2488 17.6875C16.2488 17.9361 16.15 18.1746 15.9742 18.3504C15.7983 18.5262 15.5599 18.625 15.3113 18.625H12.3ZM6.25 7.69C6.25 8.02152 6.1183 8.33946 5.88388 8.57388C5.64946 8.8083 5.33152 8.94 5 8.94C4.66848 8.94 4.35054 8.8083 4.11612 8.57388C3.8817 8.33946 3.75 8.02152 3.75 7.69C3.75 7.35848 3.8817 7.04054 4.11612 6.80612C4.35054 6.5717 4.66848 6.44 5 6.44C5.33152 6.44 5.64946 6.5717 5.88388 6.80612C6.1183 7.04054 6.25 7.35848 6.25 7.69ZM8.12 7.6875C8.12 7.43886 8.21877 7.2004 8.39459 7.02459C8.5704 6.84877 8.80886 6.75 9.0575 6.75H15.3125C15.5611 6.75 15.7996 6.84877 15.9754 7.02459C16.1512 7.2004 16.25 7.43886 16.25 7.6875C16.25 7.93614 16.1512 8.1746 15.9754 8.35041C15.7996 8.52623 15.5611 8.625 15.3125 8.625H9.0575C8.80886 8.625 8.5704 8.52623 8.39459 8.35041C8.21877 8.1746 8.12 7.93614 8.12 7.6875ZM9.0575 11.75C8.80886 11.75 8.5704 11.8488 8.39459 12.0246C8.21877 12.2004 8.12 12.4389 8.12 12.6875C8.12 12.9361 8.21877 13.1746 8.39459 13.3504C8.5704 13.5262 8.80886 13.625 9.0575 13.625H15.3125C15.4356 13.625 15.5575 13.6007 15.6713 13.5536C15.785 13.5065 15.8884 13.4375 15.9754 13.3504C16.0625 13.2634 16.1315 13.16 16.1786 13.0463C16.2258 12.9325 16.25 12.8106 16.25 12.6875C16.25 12.5644 16.2258 12.4425 16.1786 12.3287C16.1315 12.215 16.0625 12.1116 15.9754 12.0246C15.8884 11.9375 15.785 11.8685 15.6713 11.8214C15.5575 11.7742 15.4356 11.75 15.3125 11.75H9.0575ZM5 13.9375C5.33152 13.9375 5.64946 13.8058 5.88388 13.5714C6.1183 13.337 6.25 13.019 6.25 12.6875C6.25 12.356 6.1183 12.038 5.88388 11.8036C5.64946 11.5692 5.33152 11.4375 5 11.4375C4.66848 11.4375 4.35054 11.5692 4.11612 11.8036C3.8817 12.038 3.75 12.356 3.75 12.6875C3.75 13.019 3.8817 13.337 4.11612 13.5714C4.35054 13.8058 4.66848 13.9375 5 13.9375ZM6.25 17.685C6.25 18.0165 6.1183 18.3345 5.88388 18.5689C5.64946 18.8033 5.33152 18.935 5 18.935C4.66848 18.935 4.35054 18.8033 4.11612 18.5689C3.8817 18.3345 3.75 18.0165 3.75 17.685C3.75 17.3535 3.8817 17.0355 4.11612 16.8011C4.35054 16.5667 4.66848 16.435 5 16.435C5.33152 16.435 5.64946 16.5667 5.88388 16.8011C6.1183 17.0355 6.25 17.3535 6.25 17.685Z" fill="white"/>
</svg>
