<svg width="25" height="26" viewBox="0 0 25 26" fill="none" xmlns="http://www.w3.org/2000/svg">
<g clip-path="url(#clip0_243_181)">
<path d="M12.5 0C5.59639 0 0 5.82024 0 13C0 20.1798 5.59639 26 12.5 26C19.4036 26 25 20.1798 25 13C25 5.82024 19.4036 0 12.5 0Z" fill="#40B3E0"/>
<path d="M18.5822 7.47805L16.3495 19.1851C16.3495 19.1851 16.0373 19.9969 15.1786 19.6073L10.0265 15.4993L8.15303 14.5576L4.99932 13.4534C4.99932 13.4534 4.51533 13.2748 4.46846 12.8851C4.42158 12.4954 5.01494 12.2844 5.01494 12.2844L17.5517 7.16971C17.5517 7.16971 18.5821 6.69886 18.5821 7.47825" fill="white"/>
<path d="M9.63086 19.0534C9.63086 19.0534 9.48047 19.0388 9.29297 18.4217C9.10576 17.8047 8.15332 14.5574 8.15332 14.5574L15.7254 9.55642C15.7254 9.55642 16.1626 9.28037 16.147 9.55642C16.147 9.55642 16.225 9.60517 15.9907 9.83246C15.7566 10.0599 10.0425 15.4017 10.0425 15.4017" fill="#D2E5F1"/>
<path d="M12.0022 17.0742L9.96445 19.0065C9.96445 19.0065 9.80508 19.1322 9.63086 19.0534L10.0211 15.4642" fill="#B5CFE4"/>
</g>
<defs>
<clipPath id="clip0_243_181">
<rect width="25" height="26" fill="white"/>
</clipPath>
</defs>
</svg>
