<svg width="26" height="26" viewBox="0 0 26 26" fill="none" xmlns="http://www.w3.org/2000/svg">
<path d="M22.375 1.75H3.625C3.12772 1.75 2.65081 1.94754 2.29917 2.29917C1.94754 2.65081 1.75 3.12772 1.75 3.625V22.375C1.75 22.8723 1.94754 23.3492 2.29917 23.7008C2.65081 24.0525 3.12772 24.25 3.625 24.25H22.375C22.8723 24.25 23.3492 24.0525 23.7008 23.7008C24.0525 23.3492 24.25 22.8723 24.25 22.375V3.625C24.25 3.12772 24.0525 2.65081 23.7008 2.29917C23.3492 1.94754 22.8723 1.75 22.375 1.75Z" stroke="white" stroke-width="2" stroke-linecap="round" stroke-linejoin="round"/>
<path d="M10.8125 15.5001V11.7113L14.0938 13.6051L17.375 15.5001L14.0938 17.3944L10.8125 19.2888V15.5001Z" stroke="white" stroke-width="2" stroke-linecap="round" stroke-linejoin="round"/>
<path d="M1.75 7.375H24.25" stroke="white" stroke-width="2" stroke-linecap="round" stroke-linejoin="round"/>
<path d="M18.625 1.75L14.875 7.375" stroke="white" stroke-width="2" stroke-linecap="round" stroke-linejoin="round"/>
<path d="M11.125 1.75L7.375 7.375" stroke="white" stroke-width="2" stroke-linecap="round" stroke-linejoin="round"/>
</svg>
