<svg width="29" height="29" viewBox="0 0 29 29" fill="none" xmlns="http://www.w3.org/2000/svg">
<path d="M7.64042 24.8819L8.11299 25.1163C10.0823 26.2882 12.2878 26.8352 14.4934 26.8352C21.425 26.8352 27.0964 21.2098 27.0964 14.3343C27.0964 11.0529 25.7572 7.84954 23.3942 5.5056C21.0311 3.16166 17.8803 1.8335 14.4934 1.8335C7.56171 1.8335 1.89025 7.45887 1.96907 14.4125C1.96907 16.7563 2.67799 19.0222 3.85948 20.9754L4.17453 21.4442L2.91433 26.0539L7.64042 24.8819Z" fill="#50AF51"/>
<path d="M24.7334 4.25553C22.0553 1.52102 18.3532 0.036499 14.5722 0.036499C6.5379 0.036499 0.0788188 6.52129 0.157525 14.4124C0.157525 16.9126 0.866442 19.3347 2.04805 21.5223L0 28.9447L7.64057 26.9914C9.76732 28.1635 12.1303 28.7104 14.4935 28.7104C22.4491 28.7104 28.9082 22.2255 28.9082 14.3345C28.9082 10.506 27.4116 6.91197 24.7335 4.25553H24.7334ZM14.5722 26.2884C12.4455 26.2884 10.3187 25.7416 8.50701 24.6477L8.03444 24.4133L3.46588 25.5852L4.64737 21.1319L4.33232 20.663C0.866442 15.1158 2.52062 7.77139 8.19196 4.3336C13.8633 0.895919 21.1888 2.53669 24.6547 8.16206C28.1205 13.7874 26.4663 21.0536 20.7951 24.4914C18.9833 25.6633 16.7778 26.2883 14.5722 26.2883V26.2884ZM21.5039 17.616L20.6374 17.2253C20.6374 17.2253 19.3772 16.6784 18.5895 16.2877C18.5107 16.2877 18.432 16.2096 18.3532 16.2096C18.1168 16.2096 17.9593 16.2877 17.8018 16.3659C17.8018 16.3659 17.7231 16.444 16.6203 17.6941C16.5414 17.8503 16.3839 17.9285 16.2264 17.9285H16.1476C16.0689 17.9285 15.9114 17.8503 15.8325 17.7723L15.4387 17.616C14.5722 17.2253 13.7846 16.7565 13.1544 16.1315C12.9969 15.9752 12.7605 15.819 12.603 15.6627C12.0516 15.1158 11.5002 14.4907 11.1065 13.7875L11.0276 13.6313C10.9489 13.5531 10.9489 13.475 10.8701 13.3188C10.8701 13.1626 10.8701 13.0063 10.9489 12.9281C10.9489 12.9281 11.264 12.5374 11.5002 12.3031C11.6578 12.1468 11.7366 11.9125 11.8941 11.7562C12.0516 11.5218 12.1304 11.2093 12.0516 10.9749C11.9729 10.5842 11.0276 8.47467 10.7914 8.00593C10.6338 7.7715 10.4764 7.69343 10.24 7.61525H9.37357C9.21593 7.61525 9.05852 7.69343 8.90088 7.69343L8.82206 7.7715C8.66454 7.84968 8.50701 8.00593 8.34949 8.08399C8.19196 8.24035 8.11314 8.39649 7.95562 8.55285C7.40423 9.25602 7.08918 10.1154 7.08918 10.9749C7.08918 11.5999 7.2467 12.225 7.48304 12.7719L7.56186 13.0063C8.27078 14.4907 9.21593 15.819 10.4764 16.9909L10.7914 17.3034C11.0276 17.5378 11.264 17.6941 11.4215 17.9284C13.0757 19.3349 14.9661 20.3505 17.0928 20.8974C17.3292 20.9755 17.6442 20.9755 17.8806 21.0537H18.6682C19.0621 21.0537 19.5346 20.8974 19.8498 20.7412C20.086 20.5849 20.2436 20.5849 20.4011 20.4287L20.5587 20.2723C20.7162 20.1161 20.8738 20.038 21.0313 19.8818C21.1888 19.7255 21.3463 19.5693 21.4252 19.4129C21.5827 19.1004 21.6614 18.7097 21.7402 18.3192V17.7723C21.7402 17.7723 21.6614 17.6941 21.5039 17.616Z" fill="white"/>
</svg>
